<?xml version="1.0" encoding="UTF-8"?>
<svg width="27px" height="27px" viewBox="0 0 27 27" version="1.1" xmlns="http://www.w3.org/2000/svg" xmlns:xlink="http://www.w3.org/1999/xlink">
        <g id="Artboard" transform="translate(-144.000000, -54.000000)" fill="#2B2B2B">
            <path d="M167.1,80.4 L147.3,80.4 C145.477608,80.4 144,78.922392 144,77.1 L144,57.3 C144,55.477608 145.477608,54 147.3,54 L167.1,54 C168.922392,54 170.4,55.477608 170.4,57.3 L170.4,77.1 C170.4,78.922392 168.922392,80.4 167.1,80.4 Z M150.9,70.5 C152.722392,70.5 154.2,69.022392 154.2,67.2 C154.2,65.377608 152.722392,63.9 150.9,63.9 C149.077608,63.9 147.6,65.377608 147.6,67.2 C147.6,69.022392 149.077608,70.5 150.9,70.5 Z M155.7,66.184152 L166.771632,66.184152 L166.771632,64.8 L155.7,64.8 L155.7,66.184152 Z M155.7,68.884416 L166.771632,68.884416 L166.771632,67.5 L155.7,67.5 L155.7,68.884416 Z M148.752,77.232 L165.384,77.232 C166.258632,77.232 166.968,76.522632 166.968,75.648 L166.968,72.6 L147.168,72.6 L147.168,75.648 C147.168,76.522632 147.877368,77.232 148.752,77.232 Z M148.752,57.3 C147.877368,57.3 147.168,57.7594352 147.168,58.3259067 L147.168,60.3 L166.968,60.3 L166.968,58.3259067 C166.968,57.7594352 166.258632,57.3 165.384,57.3 L148.752,57.3 Z" id="ico-blog"></path>
        </g>
</svg>