<?xml version="1.0" encoding="UTF-8"?>
<svg width="24px" height="24px" viewBox="0 0 24 24" version="1.1" xmlns="http://www.w3.org/2000/svg" xmlns:xlink="http://www.w3.org/1999/xlink">
        <g id="Artboard" transform="translate(-68.000000, -56.000000)" fill="#2B2B2B">
            <path d="M72.8,77.6 C72.8,78.9248 71.7248,80 70.4,80 C69.0752,80 68,78.9248 68,77.6 C68,76.2752 69.0752,75.2 70.4,75.2 C71.7248,75.2 72.8,76.2752 72.8,77.6 Z M68,56 C81.2548,56 92,66.7452 92,80 L87.2,80 C87.2,69.3968 78.6032,60.8 68,60.8 L68,56 Z M68,65.6 C75.9532,65.6 82.4,72.0468 82.4,80 L77.6,80 C77.6,74.6984 73.3016,70.4 68,70.4 L68,65.6 Z" id="ico-feed"></path>
        </g>
</svg>