<?xml version="1.0" encoding="UTF-8"?>
<svg width="27px" height="27px" viewBox="0 0 27 27" version="1.1" xmlns="http://www.w3.org/2000/svg" xmlns:xlink="http://www.w3.org/1999/xlink">
        <g id="Artboard" transform="translate(-649.000000, -55.000000)" fill="#2A2A2A">
            <path d="M667.673085,63.7330585 L665.821292,63.7330585 L665.821292,57.003801 L653.779598,57.003801 C655.337639,57.9138995 656.585007,58.7069958 657.892854,59.3776895 C658.724073,59.8053782 659.000906,60.3788699 658.992626,61.2972487 C658.954467,65.4585737 658.975706,69.6195388 658.975706,73.7808638 C658.975706,74.2981944 658.975706,74.815885 658.975706,75.405217 L665.763334,75.405217 L665.763334,70.2146309 L667.667325,70.2146309 C667.667325,72.3069937 667.697205,74.3547155 667.651846,76.4006374 C667.633846,77.2246942 667.015022,77.4187382 666.29792,77.4147781 C664.34605,77.4032578 662.395619,77.410458 660.440869,77.409018 L658.969947,77.409018 C658.969947,78.5761618 659.000906,79.6507838 658.961667,80.7221657 C658.915228,81.9652711 658.309003,82.3155582 657.24055,81.7107459 C654.738614,80.2948369 652.235598,78.878568 649.77902,77.3838174 C649.39671,77.1516127 649.040679,76.5104396 649.037799,76.0561103 C648.99424,69.4704957 649.01692,62.8848811 649,56.2992666 C649,55.3571273 649.421909,55 650.306407,55 C655.644351,55.0097202 660.983735,55.0111602 666.32168,55.0043201 C667.036261,55.0043201 667.650766,55.1897239 667.660486,56.027821 C667.694325,58.5622728 667.673085,61.0978046 667.673085,63.7330585 Z M669.631795,68.310552 C668.003557,68.310552 666.539834,68.3217122 665.075751,68.3062319 C663.852502,68.2936317 663.15196,67.7788212 663.244838,66.9180436 C663.360395,65.8481017 664.112416,65.5892564 665.047672,65.5989766 C666.515715,65.6144569 667.982317,65.6032967 669.629276,65.6032967 C669.629276,64.8692417 669.608036,64.201428 669.634675,63.5346944 C669.674274,62.5543944 670.043985,62.3139095 670.794926,62.8427603 C672.423164,63.9944238 674.017924,65.1968484 675.618083,66.3895528 C676.12171,66.7650404 676.13287,67.1768889 675.618083,67.5566966 C673.980125,68.7659613 672.348646,69.9867463 670.689449,71.1625303 C670.003306,71.6489002 669.660235,71.2874529 669.634675,70.5393576 C669.613796,69.8585837 669.631795,69.1767297 669.631795,68.310552 Z" id="ico-logout"></path>
        </g>
</svg>