<?xml version="1.0" encoding="UTF-8"?>
<svg width="27px" height="17px" viewBox="0 0 27 17" version="1.1" xmlns="http://www.w3.org/2000/svg" xmlns:xlink="http://www.w3.org/1999/xlink">
        <g id="Artboard" transform="translate(-448.000000, -59.000000)" fill="#2A2A2A" fill-rule="nonzero">
            <path d="M461.5,59 C455.363636,59 450.123182,62.5246667 448,67.5 C450.123182,72.4753333 455.363636,76 461.5,76 C467.636364,76 472.876818,72.4753333 475,67.5 C472.876818,62.5246667 467.636364,59 461.5,59 Z M461.5,73.1666667 C458.112727,73.1666667 455.363636,70.628 455.363636,67.5 C455.363636,64.372 458.112727,61.8333333 461.5,61.8333333 C464.887273,61.8333333 467.636364,64.372 467.636364,67.5 C467.636364,70.628 464.887273,73.1666667 461.5,73.1666667 Z M461.5,64.1 C459.462727,64.1 457.818182,65.6186667 457.818182,67.5 C457.818182,69.3813333 459.462727,70.9 461.5,70.9 C463.537273,70.9 465.181818,69.3813333 465.181818,67.5 C465.181818,65.6186667 463.537273,64.1 461.5,64.1 Z" id="ico-togle-night"></path>
        </g>
</svg>