<?xml version="1.0" encoding="UTF-8"?>
<svg width="27px" height="27px" viewBox="0 0 27 27" version="1.1" xmlns="http://www.w3.org/2000/svg" xmlns:xlink="http://www.w3.org/1999/xlink">
        <g id="Artboard" transform="translate(-515.000000, -54.000000)" fill="#2A2A2A">
            <path d="M530.732542,65.9152802 L541.723796,77.0262153 C541.811472,77.1148507 541.858829,77.2338937 541.863949,77.3574656 C541.863949,78.1234818 542.013701,80.9184059 541.998982,80.9662819 C541.983623,81.0148049 541.956104,80.9966896 541.956104,80.9966896 L538.388928,80.8705299 C538.269254,80.8653541 538.15406,80.8148902 538.066384,80.7288427 L536.39415,79.0460655 L533.244233,78.8565024 C532.989526,78.8409751 532.791776,78.6287679 532.794336,78.3712725 L532.746978,75.7904966 C532.746978,75.5330013 532.549228,75.3207941 532.297081,75.3052667 L529.566982,75.1364067 C529.312275,75.1208794 529.114525,74.9086722 529.117085,74.6511769 L529.087007,71.6382229 L527.172031,69.702283 L527.164546,69.7102429 C523.58969,71.6485744 519.152798,70.6755268 516.692765,67.4154291 C514.232731,64.1553313 514.477839,59.5708795 517.272575,56.5986848 C520.067311,53.6264901 524.582279,53.1438482 527.926746,55.461306 C531.273885,57.776457 532.461178,62.2052481 530.732542,65.9152801 Z M523.362501,58.8760303 C522.42495,57.9282147 520.905028,57.9282147 519.967476,58.8760303 C519.207195,59.6439875 519.029924,61.3604073 519.967476,62.307576 C520.905028,63.2553917 522.42495,63.2553917 523.362501,62.307576 C524.122142,61.5396188 524.300053,59.823846 523.362501,58.8760303 Z" id="ico-change-password"></path>
        </g>
</svg>