<?xml version="1.0" encoding="UTF-8"?>
<svg width="29px" height="27px" viewBox="0 0 29 27" version="1.1" xmlns="http://www.w3.org/2000/svg" xmlns:xlink="http://www.w3.org/1999/xlink">
        <g id="Artboard" transform="translate(-306.000000, -54.000000)" fill="#2B2B2B" fill-rule="nonzero">
            <path d="M318.718814,64.054293 L319.671977,62.9955639 C320.110613,62.5083478 320.075865,61.7535747 319.594366,61.309731 C319.112866,60.8658873 318.36695,60.9010476 317.928314,61.3882637 L315.307527,64.2993113 C314.897497,64.7547536 314.897497,65.4511692 315.307527,65.9066115 L317.928314,68.8176591 C318.36695,69.3048752 319.112866,69.3400355 319.594366,68.8961918 C320.075865,68.4523481 320.110613,67.697575 319.671977,67.2103589 L318.979336,66.4410062 L326.249227,66.4410062 C326.900567,66.4410062 327.428581,65.9067223 327.428581,65.2476496 C327.428581,64.588577 326.900567,64.054293 326.249227,64.054293 L318.718814,64.054293 Z M334.987546,56.8558228 L335.00002,78.9648634 C335.000227,79.3319639 334.901821,79.6923805 334.715087,80.0084396 C334.139375,80.9828726 332.882733,81.3060992 331.9083,80.7303865 L325.334698,76.8465828 L308.900205,76.8465828 C307.305092,76.8465828 306,75.5614625 306,73.9907599 L306,56.8558228 C306,55.2851203 307.305092,54 308.900205,54 L332.101843,54 C333.696955,54 334.987546,55.2851203 334.987546,56.8558228 Z" id="ico-replies"></path>
        </g>
</svg>