<?xml version="1.0" encoding="UTF-8"?>
<svg width="27px" height="27px" viewBox="0 0 27 27" version="1.1" xmlns="http://www.w3.org/2000/svg" xmlns:xlink="http://www.w3.org/1999/xlink">
        <g id="Artboard" transform="translate(-582.000000, -55.000000)" fill="#2A2A2A" fill-rule="nonzero">
            <path d="M605.827742,69.81625 C605.879815,69.394375 605.91453,68.955625 605.91453,68.5 C605.91453,68.044375 605.879815,67.605625 605.810385,67.18375 L608.743811,64.95625 C609.004174,64.75375 609.073604,64.3825 608.917386,64.095625 L606.140178,59.42125 C605.966603,59.1175 605.602094,59.01625 605.289658,59.1175 L601.835506,60.4675 C601.106489,59.9275 600.342756,59.48875 599.492237,59.15125 L598.97151,55.57375 C598.919437,55.23625 598.624359,55 598.277208,55 L592.722792,55 C592.375641,55 592.09792,55.23625 592.045848,55.57375 L591.525121,59.15125 C590.674601,59.48875 589.893511,59.944375 589.181852,60.4675 L585.727699,59.1175 C585.415263,58.999375 585.050755,59.1175 584.877179,59.42125 L582.099971,64.095625 C581.926396,64.399375 581.995826,64.75375 582.273547,64.95625 L585.206973,67.18375 C585.137543,67.605625 585.08547,68.06125 585.08547,68.5 C585.08547,68.93875 585.120185,69.394375 585.189615,69.81625 L582.256189,72.04375 C581.995826,72.24625 581.926396,72.6175 582.082614,72.904375 L584.859822,77.57875 C585.033397,77.8825 585.397906,77.98375 585.710342,77.8825 L589.164494,76.5325 C589.893511,77.0725 590.657244,77.51125 591.507763,77.84875 L592.02849,81.42625 C592.09792,81.76375 592.375641,82 592.722792,82 L598.277208,82 C598.624359,82 598.919437,81.76375 598.954152,81.42625 L599.474879,77.84875 C600.325399,77.51125 601.106489,77.055625 601.818148,76.5325 L605.272301,77.8825 C605.584737,78.000625 605.949245,77.8825 606.122821,77.57875 L608.900029,72.904375 C609.073604,72.600625 609.004174,72.24625 608.726453,72.04375 L605.827742,69.81625 Z M595.5,72.15625 C593.431559,72.15625 591.739197,70.5109375 591.739197,68.5 C591.739197,66.4890625 593.431559,64.84375 595.5,64.84375 C597.568441,64.84375 599.260803,66.4890625 599.260803,68.5 C599.260803,70.5109375 597.568441,72.15625 595.5,72.15625 Z" id="ico-setting"></path>
        </g>
</svg>