<svg id="Layer_1" data-name="Layer 1" xmlns="http://www.w3.org/2000/svg" viewBox="0 0 28.4928 28.3484">
  <defs>
    <style>
      .cls-1 {
        fill: #007ace;
      }
    </style>
  </defs>
  <title>i-voteup-wls</title>
  <path id="path" class="cls-1" d="M31.8739,28.1569,33.188,29.543a1.4714,1.4714,0,0,1,.2926.4364,1.0472,1.0472,0,0,1-.729,1.1655l-5.9769,1.6028a.6259.6259,0,0,1-.5083,0,1.0136,1.0136,0,0,1-.6571-1.2383l1.6028-5.904a1.5458,1.5458,0,0,1,.2916-.4364,1.0152,1.0152,0,0,1,1.3861,0l1.53,1.458a12.2579,12.2579,0,0,0,1.6787-8.748A12.0714,12.0714,0,0,0,18.0267,8.33a1.0483,1.0483,0,0,1-1.3131-.8739,1.0946,1.0946,0,0,1,.8728-1.3131A14.1967,14.1967,0,0,1,31.8739,28.1569Zm-9.6209,3.717a1.1088,1.1088,0,0,1,1.3141.798,1.1929,1.1929,0,0,1-.8738,1.3131A14.1966,14.1966,0,0,1,8.4059,11.9712L7.0917,10.657A1.4531,1.4531,0,0,1,6.8,10.2206a1.0458,1.0458,0,0,1,.729-1.1654L13.505,7.4524a.619.619,0,0,1,.5084,0,.9351.9351,0,0,1,.657,1.1664l-1.6018,5.9039a1.5471,1.5471,0,0,1-.2926.4364,1.0152,1.0152,0,0,1-1.3861,0l-1.458-1.458A12.0587,12.0587,0,0,0,8.0375,19.99a11.2057,11.2057,0,0,0,.2206,2.187A12.02,12.02,0,0,0,22.253,31.8739Zm-7.116-12.37L14.2,23H12.8312L11.34,17.2928H12.847l.7594,3.785h.0712l.9136-3.785H15.754l.9453,3.785h.0712l.7475-3.785h1.495L17.5219,23h-1.36l-.9532-3.4963Zm8.0645,2.2979V23h-3.876V17.2928H20.777v4.5088Zm.1068-.4271h1.3843c.0356.4152.4509.68,1.052.68.5419,0,.9137-.261.9137-.6367,0-.3164-.2492-.4865-.9018-.617l-.7515-.15c-1.0441-.1978-1.582-.7673-1.582-1.6651,0-1.1153.8938-1.847,2.27-1.847,1.3368,0,2.2623.7238,2.286,1.78H26.6385a.8347.8347,0,0,0-.9255-.6843c-.51,0-.8464.2413-.8464.621,0,.3124.2531.4944.8543.613l.7356.1424c1.1272.2175,1.6335.7277,1.6335,1.6334,0,1.1905-.91,1.91-2.4047,1.91C24.2417,23.1542,23.332,22.474,23.3083,21.3745Z" transform="translate(-5.8937 -5.8898)"/>
</svg>
