<?xml version="1.0" encoding="UTF-8"?>
<svg width="27px" height="24px" viewBox="0 0 27 24" version="1.1" xmlns="http://www.w3.org/2000/svg" xmlns:xlink="http://www.w3.org/1999/xlink">
        <g id="Artboard" transform="translate(-710.000000, -54.000000)" fill="#2A2A2A" fill-rule="nonzero">
            <path d="M736.791313,61.1884777 C736.930416,61.3296923 737,61.5061767 737,61.6472561 C737,61.8237406 736.930416,62.000225 736.791247,62.1414395 L729.868293,69.2014919 C729.65954,69.3779764 729.346443,69.4485836 729.102931,69.3427065 C728.859418,69.2368294 728.685491,68.9897377 728.685491,68.7073085 L728.685491,65.0714052 C727.154832,64.9655281 723.919455,65.3891042 721.379856,69.6957429 L720.962416,70.4017481 C720.823247,70.6135024 720.614493,70.754717 720.370981,70.754717 C720.301397,70.754717 720.266571,70.754717 720.231812,70.754717 C719.953541,70.7194471 719.709962,70.4723554 719.675203,70.1899263 L719.536034,69.3780439 L719.536034,69.3427741 C719.396865,68.3896771 718.9446,63.588855 723.119267,60.0588288 C723.397605,59.8117371 725.171842,58.3291194 728.685491,58.1879048 L728.685491,54.693216 C728.685491,54.4107869 728.859418,54.1636952 729.102931,54.0578181 C729.381268,53.9519409 729.65954,53.9872108 729.868293,54.1990326 L736.791313,61.1884777 Z M733.258665,71.9151027 C733.848768,71.9151027 734.300066,72.3671373 734.3,72.9582032 L734.3,76.9568995 C734.3,77.5479654 733.848768,78 733.258599,78 L711.041401,78 C710.451298,78 710,77.5480319 710,76.9568995 L710,59.5714024 C710,58.98027 710.451298,58.5282353 711.041401,58.5283019 L718.331474,58.5283019 C718.921577,58.5283019 719.372875,58.9803365 719.372875,59.5714024 C719.372875,60.1624683 718.921643,60.614503 718.331474,60.614503 L712.082869,60.614503 L712.082869,75.9137324 L732.217264,75.9137324 L732.217264,72.9582032 C732.217264,72.3671373 732.668496,71.9151027 733.258665,71.9151027 Z" id="ico-share"></path>
        </g>
</svg>