<?xml version="1.0" encoding="UTF-8"?>
<svg width="27px" height="28px" viewBox="0 0 27 28" version="1.1" xmlns="http://www.w3.org/2000/svg" xmlns:xlink="http://www.w3.org/1999/xlink">
        <g id="Artboard" transform="translate(-378.000000, -52.000000)" fill="#2A2A2A">
            <path d="M394.875,59.6774194 L401.625,59.6774194 C403.48881,59.6774194 405,61.1937548 405,63.0645161 L405,66.4718542 L398.25,66.4718542 C396.38592,66.4718542 394.875,67.9881897 394.875,69.858951 C394.875,71.7294413 396.38592,73.2460477 398.25,73.2460477 L405,73.2460477 L405,76.6129032 C405,78.4833935 403.48881,80 401.625,80 L381.375,80 C379.51119,80 378,78.4833935 378,76.6129032 L378,56.2903226 C378,58.1610839 379.51092,59.6774194 381.375,59.6774194 L394.875,59.6774194 Z M399.866166,69.858951 C399.866166,70.6891961 399.195486,71.36228 398.368206,71.36228 C397.540656,71.36228 396.869976,70.6891961 396.869976,69.858951 C396.869976,69.0287058 397.540656,68.3556219 398.368206,68.3556219 C399.195486,68.3556219 399.866166,69.0287058 399.866166,69.858951 Z M399.15,58.7741935 L382.275,58.7741935 C380.41092,58.7741935 378.9,57.2578581 378.9,55.3870968 C378.9,53.5163355 380.41092,52 382.275,52 L395.775,52 C397.63908,52 399.15,53.5163355 399.15,55.3870968 L399.15,58.7741935 Z" id="ico-wallet"></path>
        </g>
</svg>