<svg id="Layer_1" data-name="Layer 1" xmlns="http://www.w3.org/2000/svg" viewBox="0 0 30 30">
  <defs>
    <style>
      .cls-1 {
        fill: #2b78d6;
      }

      .cls-2 {
        fill: #94bbeb;
      }

      .cls-3 {
        fill: #bbd7fa;
      }

      .cls-4 {
        fill: #f9f9f9;
      }
    </style>
  </defs>
  <title>i-write</title>
  <path id="Fill-1" class="cls-1" d="M26.25,30H3.75A3.7514,3.7514,0,0,1,0,26.25V5.5519A5.5526,5.5526,0,0,1,5.5519,0H26.25A3.7514,3.7514,0,0,1,30,3.75v22.5A3.7514,3.7514,0,0,1,26.25,30"/>
  <path id="Fill-3" class="cls-2" d="M26.109,6.7841,24.2865,4.9766,7.6328,21.6285l3.1556,3.1556L26.12,9.33a1.8023,1.8023,0,0,0-.0113-2.5463"/>
  <path id="Fill-5" class="cls-3" d="M20.7952,4.0476,5.4859,19.4807l2.1469,2.1487L24.2865,4.9757,23.34,4.0382a1.8,1.8,0,0,0-2.5444.0094"/>
  <path id="Fill-7" class="cls-4" d="M7.6337,21.6292,5.4849,19.4805l-.7443.7519-.0207.4912L4.5343,25.323a.6.6,0,0,0,.6525.6225l4.8769-.4313.7256-.7293Z"/>
</svg>
